<?xml version="1.0" encoding="UTF-8"?>
<svg id="Layer_1" xmlns="http://www.w3.org/2000/svg" version="1.1" viewBox="0 0 202.1 222.82">
  <!-- Generator: Adobe Illustrator 29.4.0, SVG Export Plug-In . SVG Version: 2.1.0 Build 152)  -->
  <defs>
    <style>
      .st0 {
        fill: #f2ac1d;
      }
    </style>
  </defs>
  <path class="st0" d="M20.66,25.68c-1.07-.08-2.02.23-2.74.9-.9.83-1.38,2.16-1.38,3.82-.02,19.27-.02,38.54,0,57.81,0,3.07,1.3,4.69,3.87,4.84.1,0,.19,0,.28,0,.98,0,1.79-.3,2.43-.9.88-.83,1.33-2.2,1.33-4.06,0-6.95,0-13.89,0-20.84v-15.48c0-7.08,0-14.16,0-21.23,0-1.13,0-4.59-3.8-4.87Z"/>
  <path class="st0" d="M181.67,25.68c-1.05-.08-1.97.21-2.65.83-.9.83-1.36,2.23-1.36,4.16,0,7.32,0,14.63,0,21.95v14.28c0,7.06,0,14.11-.01,21.17,0,1.39-.01,4.63,3.62,4.97.15.01.29.02.43.02.95,0,1.79-.31,2.44-.9.93-.84,1.42-2.21,1.42-3.95.02-19.22.02-38.44,0-57.66,0-3.78-2.11-4.74-3.88-4.88Z"/>
  <path class="st0" d="M202.08,42.97c0-3.81-2.43-4.51-3.88-4.59-1.09-.06-2.04.25-2.74.9-.86.81-1.3,2.09-1.31,3.8-.02,3.84-.01,7.69,0,11.53v9.48c0,3.88.01,7.76,0,11.64-.01,2.87,1.39,4.55,3.86,4.61.04,0,.08,0,.12,0,1.1,0,2.03-.35,2.72-1.02.81-.79,1.24-1.98,1.24-3.45.02-11.07.02-22.14,0-32.91Z"/>
  <path class="st0" d="M7.96,54.35c0-3.68,0-7.37,0-11.05,0-1.79-.5-3.19-1.42-4.04-.71-.66-1.66-.97-2.73-.89C0,38.66,0,42.12,0,43.25c0,4.93,0,9.87,0,14.8,0,5.78,0,11.57,0,17.35,0,1.8.54,3.27,1.5,4.13.62.56,1.39.85,2.25.85.14,0,.28,0,.43-.02,2.53-.27,3.81-1.93,3.78-4.91-.03-3.86-.03-7.72-.02-11.58v-9.52Z"/>
  <path class="st0" d="M40.98,75.62c.02-3.93.01-7.86,0-11.79v-8.77c0-4.03,0-8.06,0-12.09,0-3.95-2.39-4.58-3.82-4.6-1.16-.02-2.14.32-2.84,1.01-.79.78-1.19,1.94-1.19,3.45,0,10.97-.01,21.93,0,32.9,0,3.77,2.39,4.53,3.81,4.65.11,0,.22.01.33.01.88,0,1.67-.3,2.29-.87.91-.84,1.4-2.19,1.41-3.9Z"/>
  <path class="st0" d="M167.6,39.27c-.74-.68-1.72-.99-2.87-.9-3.65.28-3.63,3.61-3.63,4.71.02,3.81.02,7.61.01,11.42v4.53s0,4.72,0,4.72c0,3.99,0,7.98-.02,11.98-.03,3.97,2.36,4.62,3.79,4.64.04,0,.07,0,.11,0,1.1,0,2.04-.35,2.72-1.02.81-.79,1.23-1.98,1.24-3.46.02-11.1.04-21.98-.02-32.91,0-1.62-.47-2.9-1.34-3.7Z"/>
  <path class="st0" d="M159.26,104.45c-.75,0-1.5,0-2.25,0h-10s0-.4,0-.4c0-.9,0-1.69,0-2.47-.02-5.97,0-11.93.02-17.9.04-13.36.09-27.18-.35-40.77C145.94,20.77,127.65,2,105.02.16c-13.03-1.06-25.47,3.22-35.04,12.04-9.56,8.81-14.82,20.85-14.82,33.88v58.36s-3.2,0-3.2,0c-3.13,0-6.18,0-9.22,0-2.06,0-3.29.38-4.11,1.24-.83.86-1.15,2.11-1.06,4.16.55,13.98,5,26.48,13.23,37.15,2.88,4.78,12.51,13.23,23.13,18.65.47.31.96.58,1.51.82.38.17.76.32,1.14.47l.4.16c3,1.33,5.86,2.28,8.46,2.81,3.7.95,7.57,1.61,11.54,1.97v29.89h-1.87c-1.45,0-2.88,0-4.32-.02-3.17-.02-6.46-.05-9.69.08-9.02.35-16.35,7.68-16.34,16.33,0,3.25,1.37,4.64,4.56,4.65,10.63,0,21.27.01,31.9.01s21,0,31.49-.01c1.68,0,2.81-.36,3.57-1.14.78-.79,1.11-1.94,1.07-3.71-.18-8.54-7.48-15.77-16.27-16.12-3.18-.13-6.4-.11-9.52-.09-1.58,0-3.16.02-4.74.01-.56,0-1.11-.04-1.68-.08v-29.8l2.77-.46c.07-.01.14-.02.22-.02l.24-.02c18.25-2.19,33.13-10.98,44.21-26.14,7.43-10.17,11.47-22.01,11.98-35.19.06-1.41-.02-3.18-1.1-4.31-1.07-1.12-2.79-1.28-4.18-1.29ZM137.01,48.1c-2.28-.07-4.43-.14-6.58.17-.73.1-1.74-.02-2.71-.15-1.97-.25-4-.51-5.38.7-.81.72-1.23,1.84-1.23,3.35,0,1.45.4,2.55,1.2,3.25,1.36,1.2,3.38.95,5.34.7,1-.13,1.95-.24,2.66-.15,2.21.3,4.49.23,6.69.16.64-.02,1.29-.04,1.93-.05v10.48h-5.21c-2.7,0-5.41,0-8.11,0-3.01-.02-4.67,1.31-4.81,3.91-.06,1.07.26,2,.91,2.69.82.87,2.11,1.32,3.83,1.33,2.29.02,4.58.01,6.87,0h6.5s0,10.49,0,10.49h-5.33c-2.69-.01-5.38-.01-8.07.01-1.72.02-3.01.48-3.83,1.36-.65.7-.95,1.65-.87,2.73.13,1.81,1.12,3.96,4.83,3.91,1.08-.02,2.15-.01,3.22,0h10.04v10.45c-4.05.02-8.11.02-12.16.03-2.86,0-5.8.46-5.95,3.79-.05,1.09.26,1.99.92,2.67.95,1,2.6,1.48,5.05,1.48h9.13s2.91,0,2.91,0c0,.16,0,.3-.01.45-1.18,14.78-12.69,31.24-32.35,34.12-2.43.24-5.18.27-7.76.09-20.61-1.46-33.37-18.49-35.35-34.59v-.04s0-.01,0-.02h2.94s9,0,9,0c2.47,0,4.15-.5,5.13-1.53.65-.68.95-1.55.9-2.59-.19-3.83-4.38-3.83-5.96-3.83h-9.1s-3.09,0-3.09,0v-10.48h5.1c2.82,0,5.64,0,8.46,0,2.84-.01,4.54-1.5,4.53-4,0-1.16-.38-2.14-1.08-2.84-.79-.78-1.97-1.17-3.42-1.17-2.08.02-4.16.01-6.23,0h-7.31v-10.49h5.37c2.76-.01,5.52-.02,8.28,0,.02,0,.05,0,.07,0,2.66,0,4.28-1.41,4.34-3.78.03-1.18-.32-2.18-1.02-2.9-.77-.8-1.94-1.23-3.38-1.24-1.46-.01-2.92-.01-4.38,0h-9.49s0-7.82,0-7.82c0-1.13,0-2.3.16-2.51.21-.16,1.32-.16,2.39-.16h3.01c2.82,0,5.65,0,8.47-.02,2.5-.02,4.12-1.45,4.22-3.73.05-1.13-.27-2.11-.93-2.83-.73-.8-1.84-1.24-3.21-1.29-1.38-.05-2.77-.04-4.11-.04h-1.41s-6.75,0-6.75,0h-1.66c-1.47-12.69,6.22-27.49,18.17-34.77,12.89-7.85,29.57-7.26,41.49,1.46,10.96,8.02,16.28,18.92,16.23,33.3-.69-.01-1.38-.03-2.05-.06ZM105.83,154.01l.2-.03c13.85-1.56,26.06-9.13,33.54-20.8,3.94-6.14,6.36-13.09,7.21-20.65h9.66c-1.57,17.38-9.33,31.14-23.08,40.9-14.98,10.63-31.34,13.33-48.63,8.03-11.95-3.71-20.15-10.88-23.96-14.82-1.15-1.22-2.16-2.37-3.08-3.52-5.09-6.35-8.68-13.66-10.68-21.73-.54-2.17-.84-4.38-1.16-6.71-.1-.7-.19-1.4-.3-2.1h9.39c.55,3.75,1.48,7.38,2.77,10.8l.14.42c.08.26.17.52.27.78l.38.89h.03c.98,2.25,2.12,4.45,3.42,6.53,9.86,15.78,26.68,24.22,43.88,22.02ZM73.79,214.75c1.2-2.94,4.08-4.91,7.41-4.93,13.04-.08,26.39-.08,39.67,0,3.28.02,6.17,1.99,7.41,4.93h-54.49Z"/>
</svg>