<?xml version="1.0" encoding="UTF-8"?>
<svg id="Layer_1" xmlns="http://www.w3.org/2000/svg" version="1.1" viewBox="0 0 270.56 209.21">
  <!-- Generator: Adobe Illustrator 29.4.0, SVG Export Plug-In . SVG Version: 2.1.0 Build 152)  -->

  <path
    d="M263.25,30.17c-5.09,0-10.17,0-15.38,0h-5.81c0-2.06,0-4.1-.01-6.11-.02-6.26-.03-12.17.06-18.17.02-1.36-.11-3.33-1.49-4.64-1.02-.96-2.49-1.37-4.51-1.23-3.66.25-7.4.43-11.02.6-7.3.34-14.84.7-22.21,1.71-21.85,3-49.15,9.63-67.91,34.36-10.2-14.44-25.38-24.08-47.54-30.24C71.2,1.94,54.03-.16,34.93.01c-5.68.05-6.53.91-6.54,6.58,0,5.78,0,11.56,0,17.51v6.08s-5.8,0-5.8,0c-5.37,0-10.54,0-15.71,0C.77,30.18,0,30.97,0,37.16v164.49c0,6.86.69,7.56,7.43,7.56h255.71c6.72,0,7.41-.67,7.41-7.22V37.5c0-6.63-.68-7.32-7.3-7.32ZM195.33,61.02c0,1.35.56,2.61,1.04,3.72.2.47.4.91.54,1.34.15.44.5.79.95.94.44.15.93.08,1.32-.19.37-.25.78-.5,1.21-.75,1.07-.63,2.17-1.28,3.01-2.3,1.98-2.43,3.8-4.93,5.72-7.58.38-.52.76-1.05,1.15-1.58.38.53.75,1.05,1.12,1.57,1.94,2.72,3.77,5.29,5.75,7.81.78.99,1.87,1.64,2.83,2.22.4.24.78.47,1.12.71.38.27.86.34,1.3.2.44-.14.8-.47.96-.9.14-.37.33-.77.53-1.19.49-1.02,1.04-2.17,1.05-3.45.08-13.47.08-27.16.07-40.41V7.78s9.37,0,9.37,0v146.65c-4.61.75-9.2,1.46-13.76,2.18-11.29,1.77-22.96,3.59-34.31,5.78-11.67,2.25-22.57,6.78-32.4,13.49-4.43,3.02-8.41,6.68-12.26,10.21-.87.8-1.77,1.62-2.66,2.43v-14.28c-.01-41.39-.02-84.19.07-126.28,0-1.78.6-3.88,1.56-5.48,8.47-14.15,22.51-20.98,33.8-25.36,4.86-1.88,9.89-3.27,15.22-4.75,1.84-.51,3.72-1.03,5.63-1.58v13.36c-.01,12.09-.02,24.58.07,36.88ZM214.55,8.37c.93-.12,1.88-.24,2.84-.36v43.91c-1.13-1.6-2.15-3.04-3.2-4.48-1.22-1.66-2.35-2.77-3.85-2.79h-.02c-1.49,0-2.63,1.09-3.87,2.73-1.23,1.62-2.43,3.24-3.78,5.09,0-3.95,0-7.91,0-11.86,0-9.5.01-19.33-.06-28.99-.01-1.86.14-2.04,1.84-2.15,3.34-.21,6.62-.63,10.1-1.09ZM157.05,182.3c12.47-7.71,25.96-12.7,40.09-14.83,12.78-1.92,25.64-3.16,39.92-4.47,5.13-.47,5.13-3.92,5.13-6.43-.02-31.03-.02-62.06-.02-93.09v-25.79h20.8v163.91h-122.51c3.41-8.18,8.86-14.51,16.59-19.3ZM131.63,169.94v19.13c-15.04-18.21-35.57-24.45-53.9-28.12-9.38-1.87-19.05-2.93-28.41-3.95-4.17-.45-8.48-.92-12.69-1.46-.2-.03-.4-.05-.61-.07V7.48c27.19.05,47.5,3.73,65.78,11.9,13.87,6.2,22.92,13.65,28.48,23.43.8,1.4,1.28,3.08,1.28,4.47.07,40.89.07,82.46.06,122.66ZM128.95,199.12c.4.82.76,1.65,1.16,2.58H7.62V37.79h20.87v117.98c0,6.17.61,6.84,6.48,7.15l.56.03c23.73,1.3,48.84,4.1,71.66,15.77,10.77,5.5,17.68,11.98,21.76,20.39Z" />
  <g>
    <path
      d="M52.88,62.4c.63.63,1.34,1.35,2.31,1.73,1.09.42,2.2.52,3.28.62.37.03.73.07,1.1.11,22.23,2.92,39.14,8.86,53.2,18.71.68.47,1.46.6,2.24.6.43,0,.86-.04,1.27-.07.41-.04.8-.07,1.13-.06.5.02.97-.22,1.26-.62.29-.41.36-.93.19-1.4-.11-.3-.2-.68-.3-1.08-.27-1.13-.59-2.41-1.63-3.15-16.23-11.53-35.77-18.15-61.47-20.83-.46-.04-.91.12-1.23.45l-2.11,2.18c-.29.3-.44.7-.42,1.11.02.41.21.8.52,1.06.23.2.45.42.67.64Z" />
    <path
      d="M116.46,128.64c-16-11.23-34.56-17.53-60.16-20.43-.37-.04-.73.05-1.03.26l-2.93,2.07c-.41.29-.65.76-.63,1.26.01.5.27.96.7,1.23.35.22.72.51,1.11.82.98.77,2.09,1.64,3.46,1.81,23.31,2.86,40.97,8.87,55.55,18.92.74.51,1.6.63,2.45.63.42,0,.84-.03,1.24-.06.45-.03.88-.06,1.24-.05.54.02,1.03-.23,1.32-.67s.33-1,.09-1.48c-.16-.33-.31-.73-.46-1.16-.4-1.12-.86-2.39-1.94-3.15Z" />
    <path
      d="M116.44,154.12c-.18-.11-.36-.22-.52-.33-15.86-10.85-34.87-17.2-59.81-19.99-.38-.04-.76.06-1.06.29l-2.75,2.04c-.39.29-.61.75-.6,1.23s.25.93.65,1.21c.31.21.64.49.98.78.9.76,1.91,1.63,3.22,1.79,16.52,2.14,37.84,6.27,56.19,19.32.07.05.14.1.21.16.43.33,1.07.82,1.89.82.07,0,.14,0,.21-.01h.13c1.14-.13,2.69-.29,3.48-1.4.86-1.23.32-3.21-.23-4.16-.48-.85-1.31-1.35-1.97-1.75Z" />
    <path
      d="M118.32,104.66c-.69-.89-1.63-1.5-2.46-2.04-.17-.11-.34-.22-.5-.33-15.28-10.34-32.9-16.53-57.13-20.08-.29-.04-.59,0-.85.12-.44.2-1.04.41-1.62.62-1.86.65-3.62,1.27-3.8,2.83-.14,1.21.09,2.2.69,2.93.96,1.16,2.48,1.28,3.7,1.37.48.04.93.07,1.26.15.24.06.44.07.56.07,22.73,2.77,40,8.74,54.33,18.79.11.08.22.17.34.27.49.41,1.14.96,2.01.96.07,0,.13,0,.2-.01.71-.07,2.46-.35,3.45-1.51.96-1.12.52-3.23-.19-4.14Z" />
    <path
      d="M52.38,36.62c.26.17.53.39.83.63.79.65,1.69,1.38,2.85,1.53,16.76,2.18,38.39,6.36,56.92,19.49.59.42,1.27.54,1.95.54.49,0,.98-.06,1.45-.12.38-.05.75-.1,1.04-.1.48,0,.93-.24,1.21-.63.28-.39.35-.9.19-1.35-.1-.3-.19-.68-.28-1.09-.25-1.15-.53-2.45-1.59-3.2-16.21-11.47-35.79-18.07-61.59-20.76-.49-.05-.97.14-1.29.51l-1.99,2.32c-.28.33-.41.76-.35,1.18.06.43.3.81.66,1.04Z" />
    <path
      d="M218.09,109.9c-.26-.12-.55-.29-.86-.47-.87-.51-1.86-1.09-3.02-1-4.19.33-8.34.83-12.34,1.51-18.55,3.13-33.97,9.1-47.15,18.26-1.15.8-3.91,4.12-2.82,6.02.58,1.01,1.33,1.63,2.22,1.83.22.05.43.07.63.07,1.15,0,2.14-.69,2.96-1.26.3-.21.58-.4.83-.54,1.66-.91,3.32-1.87,4.93-2.79,3.88-2.22,7.88-4.52,11.98-6.32,10.9-4.78,23.36-7.89,38.11-9.52,1.17-.13,2.2-.58,3.2-1.02.39-.17.79-.35,1.18-.49.58-.21.97-.76.98-1.37l.04-1.52c.01-.6-.33-1.15-.88-1.4Z" />
    <path
      d="M215.7,133.95c-.33-.29-.78-.41-1.21-.34-1.86.29-3.65.56-5.39.82-3.63.55-7.06,1.06-10.47,1.71-17.14,3.24-31.67,9.11-44.41,17.95-.16.11-.34.23-.52.35-1.06.68-2.37,1.52-2.58,3.04-.13.92.21,1.84,1,2.72.53.6,1.36.81,2.26.81,1.51,0,3.2-.6,3.92-.98,1.85-.98,3.63-2.09,5.36-3.16,2-1.24,4.06-2.52,6.16-3.56,12.33-6.06,26.36-9.92,44.15-12.15,1.31-.17,2.31-1.09,3.19-1.9.33-.31.65-.6.94-.82.37-.27.59-.69.6-1.15.02-.45-.17-.89-.52-1.19l-2.48-2.14Z" />
    <path
      d="M153.08,109.58c.35-.02.78.02,1.23.06.42.03.87.07,1.31.07.84,0,1.68-.13,2.39-.63,12.06-8.51,26.19-14,44.46-17.26,1.88-.33,3.83-.57,5.71-.8,2.12-.26,4.3-.52,6.45-.93,1.2-.23,2.05-1.12,2.79-1.9.27-.28.52-.55.76-.75.36-.31.56-.77.53-1.24-.03-.47-.28-.9-.68-1.16-.28-.18-.55-.37-.83-.55-.74-.5-1.51-1.02-2.35-1.45-.54-.28-1.1-.27-1.56-.21-.28-.13-.59-.18-.89-.12-1.57.26-3.13.52-4.7.77-3.4.55-6.92,1.12-10.37,1.79-16.28,3.17-30.82,9.18-43.24,17.87-1.08.75-1.54,2.01-1.95,3.13-.16.42-.3.82-.46,1.15-.23.47-.2,1.03.08,1.48.29.44.77.7,1.31.68Z" />
    <path
      d="M153.28,58.74c.26,0,.58.06.93.11.44.07.94.14,1.43.14.61,0,1.23-.11,1.77-.49,9.29-6.44,19.27-11.19,29.65-14.1,1.04-.29,1.8-1.01,2.48-1.64.25-.24.49-.46.72-.64.4-.31.62-.81.57-1.32l-.12-1.28c-.06-.64-.52-1.17-1.15-1.32-.31-.07-.66-.2-1.03-.33-1-.35-2.14-.75-3.31-.45-11.48,2.97-22.2,8.1-31.86,15.25-1.02.75-1.19,2.04-1.33,3.18-.05.38-.1.75-.17,1.02-.11.44-.02.91.25,1.27s.7.58,1.15.6Z" />
    <path
      d="M153.24,84.05c.05,0,.1,0,.16,0,.38-.04.79-.05,1.23-.06,1.09-.02,2.32-.04,3.42-.59,3.74-1.86,7.5-3.81,11.14-5.69,3.82-1.98,7.77-4.02,11.69-5.96,1.05-.52,2.24-.86,3.49-1.21,1.14-.32,2.33-.66,3.47-1.16,1.39-.61,2.34-2.54,2.34-3.89,0-1.24-1.12-1.96-1.86-2.45-.14-.09-.26-.17-.35-.24-.34-.29-.79-.42-1.24-.33-.4.07-.74.12-1.03.17-.58.09-1.03.16-1.51.3-11.33,3.37-21.47,8.28-30.14,14.61-1.07.78-1.46,2.09-1.8,3.25-.13.43-.25.84-.39,1.17-.21.49-.14,1.05.18,1.47.28.38.73.61,1.2.61Z" />
  </g>
</svg>