<?xml version="1.0" encoding="UTF-8"?>
<svg id="Layer_1" xmlns="http://www.w3.org/2000/svg" version="1.1" viewBox="0 0 216.81 231.66">
  <!-- Generator: Adobe Illustrator 29.4.0, SVG Export Plug-In . SVG Version: 2.1.0 Build 152)  -->
  <defs>
    <style>
      .st0 {
        fill: #f2ac1d;
      }
    </style>
  </defs>
  <path class="st0" d="M110.72,0c1.73.44,3.5.76,5.19,1.33,9.73,3.28,16.18,9.84,19.39,19.61.14.43.26.86.4,1.28.04.12.13.21.24.38,6.74-.63,12.94.94,18.42,5.06,4.62,3.47,7.78,8,9.21,13.62.38,1.47,1.07,1.99,2.48,2.31,12.37,2.83,20.86,13.43,20.54,26.08-.25,10.2-5.1,17.86-14.05,22.77-1.37.75-1.88,1.54-2.01,3.04-1.05,12.19-10.64,20.74-22.83,20.26-5.12-.2-9.58-2.23-13.29-5.79-.77-.74-1.3-.75-2.31-.41-2.5.87-5.11,1.44-8.06,2.24.87,10.6,1.78,21.7,2.7,32.96.94,0,1.7,0,2.46,0,27.75,0,55.51,0,83.26,0,2.68,0,4.19,1.17,4.34,3.32.14,2.08-1.25,3.72-3.37,3.94-.64.07-1.28.02-1.93.02-27.24,0-54.48,0-81.72,0-.76,0-1.52,0-2.48,0,.34,3.45.31,6.77,1.04,9.91,1.78,7.67,6.8,12.46,14.53,13.5,9.91,1.33,17.89,5.57,23.87,13.59.11.15.28.26.49.45,3.55-3.37,7.72-5.22,12.68-4.96.96.05,1.92.18,2.85.41,2.09.51,3.2,2.32,2.77,4.38-.41,1.94-2.31,3.18-4.39,2.73-3.52-.76-6.39.26-8.99,2.94,3.82,3.58,8.14,5.83,13.04,6.86,2.37.5,4.82.64,7.25.78,2.45.14,4.1,1.53,4.07,3.67-.03,2.1-1.72,3.65-4.14,3.63-12.09-.11-22.02-4.68-29.64-14.22-2.16-2.7-4.44-5.38-7.05-7.62-2.08-1.79-4.74-2.9-7.51-4.53-.19,1.9-.38,3.17-.44,4.43-.08,1.82.69,3.07,2.32,4.08,5.44,3.39,8.61,8.22,8.43,14.81-.09,3.54-1.57,6.6-4.06,9.11-1.49,1.5-3.55,1.53-5.03.21-1.49-1.33-1.65-3.34-.39-5.02,3.36-4.5,2.82-9.53-2-12.33-6-3.48-7.3-8.51-6.24-14.75.04-.25.07-.51.08-.77,0-.18-.02-.37-.04-.67-1.15-.34-2.34-.59-3.46-1.03-9.7-3.8-15.56-10.76-16.58-21.22-1.23-12.54-2.07-25.11-3.1-37.66-.49-6.02-1.05-12.04-1.5-18.06-.63-8.43,2.9-14.94,9.44-19.98,5.75-4.43,12.33-7.05,19.36-8.57,2.62-.57,4.65.68,5.03,2.89.36,2.1-1.09,3.77-3.66,4.32-6.61,1.43-12.75,3.91-17.86,8.49-3.48,3.12-5.33,6.96-4.99,11.81,2.73.57,5.03-.08,7.16-1.6,3.51-2.51,4.59-2.35,7.31,1.05,3.89,4.86,10.19,6.65,15.93,4.53,5.89-2.18,9.74-7.98,9.45-14.27-.02-.45-.08-.9-.11-1.35-.19-2.92.44-3.85,3.25-4.84,8.15-2.87,13.33-10.53,12.88-19.03-.44-8.35-6.41-15.41-14.75-17.38-1.18-.28-2.41-.38-3.62-.51-2.3-.25-3.37-1.15-3.65-3.45-.7-5.73-3.16-10.43-7.96-13.71-4.45-3.05-9.35-4.07-14.65-2.72-3.37.85-5-.22-5.52-3.59-1.69-10.87-10.31-19.05-20.51-19.46-11.34-.46-20.58,6.34-23.21,17.11-.2.81-.32,1.64-.47,2.46-.58,3.27-2.17,4.26-5.43,3.52-7.73-1.75-14.04.64-18.96,6.75-2.05,2.55-3.19,5.53-3.56,8.81-.35,3.12-1.24,3.96-4.33,4.33-9.05,1.08-15.19,6.18-17.28,14.36-2.35,9.2,2.63,18.8,11.51,22.21,3.97,1.52,4.11,1.73,3.95,6.06-.33,9.02,6.28,15.9,15.04,15.54,4.43-.19,7.95-2.27,10.63-5.79,2.01-2.64,3.27-2.9,6.19-1.26,2.54,1.43,5.17,2.54,8.16,2.6,1.46.03,2.01-.44,1.92-2.01-.33-5.42-3.37-9.18-7.39-12.32-4.05-3.17-8.64-5.23-13.64-6.42-1.61-.38-2.82-1.26-3.09-3.02-.24-1.54.2-2.94,1.59-3.63.91-.45,2.17-.7,3.12-.46,8.79,2.23,16.56,6.23,22.26,13.55,3.42,4.39,4.75,9.42,4.34,14.99-.87,11.92-1.64,23.86-2.47,35.79-.49,6.99-.91,13.99-1.54,20.97-.84,9.38-8.54,18.11-18.06,20.69-.62.17-1.23.32-1.97.52.13,1.61.34,3.18.38,4.76.12,4.81-1.6,8.55-5.99,11.01-3.87,2.17-5.67,6.5-4.38,9.91.36.94.98,1.79,1.6,2.6,1.45,1.89,1.41,3.91-.21,5.32-1.59,1.39-3.67,1.18-5.3-.53-5.11-5.35-5.09-13.72.15-19.81,1.16-1.35,2.51-2.7,4.05-3.5,2.53-1.31,3-3.31,2.75-5.78-.08-.81-.3-1.61-.46-2.48-4.11,1.05-7.35,3.28-10.06,6.3-2.1,2.34-4.05,4.83-6.12,7.19-7.42,8.45-16.93,12.18-28,12.3-2.4.02-4.1-1.56-4.1-3.67,0-2.14,1.64-3.61,4.11-3.6,7.63.03,14.33-2.37,20.05-7.42-.93-2.35-5.17-3.93-8.27-3.34-2.7.52-4.49-.46-4.92-2.61-.46-2.33.78-3.97,3.56-4.49,5.67-1.05,10.49.75,14.74,4.71.98-1.11,1.97-2.17,2.9-3.27,5.38-6.39,12.44-9.52,20.55-10.58,8.95-1.17,15.03-7.41,15.87-16.4.21-2.3.3-4.62.46-7.22h-2.3c-27.5,0-55,0-82.49,0-3.03,0-4.7-1.46-4.56-3.93.1-1.75,1.41-3.16,3.15-3.33.64-.06,1.28-.02,1.93-.02,27.43,0,54.87,0,82.3,0,.76,0,1.52,0,2.51,0,.79-11.16,1.57-22.2,2.32-32.75-3.71-1.03-7.12-2.01-10.56-2.87-.45-.11-1.17.23-1.55.59-12.32,11.38-31.53,5.91-35.85-10.22-.23-.87-.6-1.78-.51-2.63.27-2.61-.99-3.84-3.19-5.08-9.41-5.29-14.25-15.82-12.65-26.86,1.48-10.21,9.68-19.01,20.01-21.28,1.67-.37,2.33-1.05,2.78-2.69,3.23-11.75,14.76-19.52,26.98-18.34.18.02.37-.02.68-.04.15-.46.3-.94.46-1.41,3.87-11.55,11.69-18.59,23.72-20.82.3-.06.58-.23.88-.35,2.44,0,4.88,0,7.32,0Z"/>
  <path class="st0" d="M30.74,170.26c-2.01-2.16-4.3-3.16-6.79-3.86-2.44-.68-3.53-2.72-2.69-4.84.66-1.66,2.24-2.64,3.99-2.26,5.92,1.3,10.73,4.25,13.53,9.81.64,1.27,1.35,1.54,2.63,1.5,5.72-.16,10.52-2.23,14.63-6.28,6.12-6.03,13.56-7.98,21.96-6.41,1.89.35,3.45,1.15,3.77,3.28.43,2.84-1.95,4.58-5.22,3.92-5.89-1.2-11.04.24-15.42,4.4-.7.66-1.4,1.32-2.13,1.96-5,4.41-10.94,6.3-17.5,6.4-3.85.06-7.7-.04-11.56-.12-3.31-.07-5.1,1.22-5.59,4.51-.28,1.88-.12,3.82-.12,5.73,0,.7.18,1.41.17,2.11-.03,1.8-1.21,3.18-3,3.47-1.72.28-3.04-.48-3.82-1.98-2.68-5.23-.23-15.48,4.46-18.86,2.14-1.55,3.81-2.03,8.71-2.47Z"/>
  <path class="st0" d="M186.05,170.27c.79.06,1.27.1,1.75.12,6.29.32,11,4.31,11.86,10.57.41,3.01.21,6.13-.02,9.18-.17,2.29-2.13,3.75-4.07,3.48-2.17-.3-3.26-1.98-3.14-4.5.11-2.36.28-4.75-.02-7.07-.38-3.02-2.33-4.33-5.37-4.33-4.94,0-9.88.08-14.81-.15-6.09-.29-11.29-2.91-15.56-7.16-4.81-4.79-10.34-6.65-17-5.22-2.32.5-4.17-.67-4.61-2.68-.44-2.02.73-3.87,3.04-4.39,8.65-1.96,16.34.01,22.68,6.24,4.24,4.16,9.17,6.18,15.03,6.26,1.01.01,1.56-.2,2.04-1.2,2.73-5.6,7.43-8.67,13.35-10.04,2.2-.51,4.05.67,4.54,2.75.43,1.82-.7,3.67-2.74,4.23-2.55.7-4.9,1.7-6.97,3.92Z"/>
  <path class="st0" d="M83.45,215.41c-.57-3.38-1.27-6.68-1.67-10.02-.58-4.84,1.14-8.82,4.99-11.85.66-.52,1.27-1.09,1.97-1.55,3.15-2.08,4.54-4.87,3.94-8.7-.34-2.17,1.09-3.9,3.06-4.16,2.11-.28,3.86,1.09,4.16,3.34.8,6.01-.66,11.32-5.96,14.62-4.94,3.07-5.75,7.03-4.28,12.19,1.06,3.75,1.97,7.57,2.6,11.42.7,4.32-1.59,7.53-4.7,10.18-1.47,1.25-3.6.92-4.86-.49-1.19-1.33-1.23-3.34-.06-4.76.6-.73,1.28-1.4,2.11-2.29"/>
  <path class="st0" d="M132.06,223.36c.74.8,1.31,1.39,1.86,2,1.46,1.6,1.47,3.75.04,5.19-1.43,1.43-3.56,1.44-5.18-.03-3.61-3.29-5.14-7.25-3.96-12.13,1.03-4.3,2.04-8.6,2.92-12.93.58-2.87-.49-5.15-2.94-6.8-1.06-.72-2.07-1.52-3.05-2.35-4.08-3.43-5.76-9.32-4.12-14.32.73-2.22,2.57-3.34,4.56-2.78,1.89.53,2.93,2.37,2.45,4.56-.73,3.36.07,5.99,3.07,8,3.35,2.24,6.36,4.92,7.13,9.18.77,4.21-.14,8.3-1.19,12.36-.17.66-.31,1.34-.42,1.79"/>
  <path class="st0" d="M116.14,201.79c-.06,3.39-1.2,5.8-2.94,8.06-1.4,1.81-2.67,3.76-3.73,5.79-.9,1.72-.71,3.46.93,4.87.62.53,1.14,1.23,1.57,1.94,1.03,1.68.61,3.65-.92,4.79-1.44,1.08-3.41.93-4.75-.35-5.39-5.14-6.15-10.3-2.34-16.77.94-1.6,2.08-3.09,3.26-4.52,2.16-2.65,2.15-4.6-.21-7.11-.22-.23-.48-.44-.68-.68-1.26-1.54-1.21-3.49.12-4.9,1.28-1.35,3.37-1.54,4.87-.29,3.01,2.5,4.66,5.73,4.82,9.18Z"/>
  <path class="st0" d="M104.74,70.45c0-2.76-.03-5.52,0-8.27.04-2.7,1.39-4.25,3.63-4.26,2.24-.01,3.66,1.54,3.68,4.22.04,5.64.04,11.29,0,16.93-.02,2.58-1.6,4.29-3.73,4.24-2.08-.05-3.54-1.7-3.58-4.19-.05-2.88-.01-5.77-.01-8.66Z"/>
</svg>