<?xml version="1.0" encoding="UTF-8"?>
<svg id="Layer_1" xmlns="http://www.w3.org/2000/svg" version="1.1" viewBox="0 0 192.97 233.24">
  <!-- Generator: Adobe Illustrator 29.4.0, SVG Export Plug-In . SVG Version: 2.1.0 Build 152)  -->
  <defs>
    <style>
      .st0 {
        fill: #f2ac1d;
      }
    </style>
  </defs>
  <path class="st0" d="M188.63,181.78c-3.47-3.34-6.94-6.68-10.41-10.02l-12.5-12.04c-6.4-6.16-13.02-12.52-19.49-18.82-.36-.35-.63-1.19-.55-1.76.46-3.44-.36-6.31-2.49-8.76-.38-.44-.78-.85-1.27-1.35-.14-.14-.28-.29-.44-.45.39-.37.78-.73,1.16-1.09,1.39-1.32,2.7-2.56,4.09-3.74.21-.18.95-.25,1.37-.08,5.52,2.29,11.18.57,14.78-4.48,3.22-4.53,2.71-10.52-1.24-14.57-.56-.57-1.12-1.14-1.68-1.72.08-18.5.02-37.01.08-55.52,0-2.63-.8-4.61-2.67-6.49-12.49-12.51-24.95-25.07-37.28-37.75C117.84.84,115.54-.02,112.4,0c-30.1.17-60.2.22-90.31.31C8.33.36,0,8.71,0,22.47c0,57.29,0,114.58,0,171.87,0,1.03-.02,2.07.04,3.1.56,10.31,8.45,18.63,18.67,19.16,7.51.38,15.04.18,22.57.22,3.46.02,6.93,0,10.39,0,.24.67.36.85.36,1.02.03,2.63.02,5.27.08,7.9.12,4.83,2.56,7.44,7.3,7.45,21.73.05,43.46.05,65.19,0,4.54,0,7.2-2.69,7.33-7.17.09-2.91.44-5.92-.11-8.72-.5-2.53-1.44-6-3.3-7.02-3.8-2.07-3.95-4.86-3.71-8.28.07-.93,0-1.88-.09-2.82-.44-4.6-4.01-8.03-8.62-8.05-16.09-.05-32.17-.06-48.26,0-4.67.02-8.39,3.7-8.66,8.35-.12,2.06-.2,4.15-.01,6.2.21,2.32-.73,2.85-2.89,2.83-11.48-.09-22.95,0-34.43-.05-8.89-.04-13.48-4.74-13.48-13.66,0-57.57,0-115.14,0-172.71,0-8.69,4.6-13.36,13.36-13.41,28.78-.15,57.57-.25,86.35-.36.91,0,1.82.09,3.02.15,0,1.67-.04,3.16,0,4.64.17,5.54-.07,11.13.64,16.61,1.48,11.44,8.99,19.95,21.97,19.72,3.57-.06,7.15,0,10.72.02,2.32,0,4.63,0,6.94,0v44.76c-4.3-4.32-8.71-8.72-13.33-13.27-4.06-4.01-9.98-4.38-14.72-.93-4.74,3.46-6.45,9.37-4.15,14.38.46,1,.28,1.44-.45,2.16-8.41,8.38-16.79,16.79-25.17,25.19l-7.58,7.6c-.29.29-.59.58-.91.88l-.22.21c-2.87-1.46-5.75-1.83-8.6-1.1-4.01,1.04-7.51,4.47-8.71,8.55-1.15,3.93-.12,7.9,2.92,11.18,2.52,2.73,5.22,5.37,7.82,7.93,1.15,1.13,2.29,2.26,3.43,3.39l2.89,2.9c2.97,2.97,5.94,5.95,8.93,8.9,3.65,3.61,8,4.56,12.57,2.74,3.16-1.25,5.58-3.51,6.8-6.37,1.27-2.94,1.23-6.4-.1-9.72-.15-.37-.11-.97,0-1.09,1.27-1.41,2.58-2.75,3.98-4.18l1.08-1.11.64.56c.62.55,1.15,1.02,1.7,1.47,2.26,1.87,4.95,2.55,7.96,2.03.94-.16,1.46.01,2.15.73,4.3,4.5,8.56,9.18,12.69,13.71,8.28,9.08,16.83,18.47,26.08,26.87,3.72,3.38,6.47,5.26,8.42,5.74,1.02.25,2.02.37,2.98.37,5.03,0,9.22-3.18,11.07-6.91,2.62-5.28,1.53-10.99-2.94-15.28ZM67.57,200.96c.02-2.02,1.59-1.48,2.69-1.48,12.7-.03,25.4-.02,38.1-.02,2.07,0,4.14.05,6.21-.01,1.44-.04,1.94.57,2.05,1.99.52,6.54.56,6.53-5.91,6.53-13.26,0-26.53,0-39.79,0h-3.35c0-2.55-.02-4.78,0-7.01ZM60.46,217.95c.04-.57.87-1.17,1.47-1.56.33-.22.91-.06,1.38-.06,19.16,0,38.31.03,57.47-.04,2.26,0,3.01.75,2.81,2.94-.16,1.76-.03,3.54-.03,5.52h-63.16c0-2.34-.1-4.57.07-6.79ZM131.25,40.95c-5.14-.18-9.18-3.28-10.45-9.1-1.16-5.34-1.21-10.93-1.77-16.63,8.95,8.7,17.47,16.99,26.5,25.77-5.27,0-9.78.13-14.28-.03ZM105.81,163.26c-.05,2.02-.81,3.27-2.53,4.16-1.7.88-3.04.08-3.86-.75l-2.78-2.78c-6.76-6.77-13.52-13.54-20.25-20.33-.83-.83-1.24-1.68-1.24-2.52,0-.91.51-1.86,1.49-2.82.86-.84,1.7-1.26,2.53-1.26s1.65.41,2.48,1.24c7.32,7.3,15.12,15.08,22.92,22.96.48.48.8,1.17,1.03,1.68.07.16.14.3.2.42ZM135.92,134.75c1.1.67,1.7,1.36,1.8,2.07.1.74-.34,1.62-1.33,2.61l-3.19,3.2c-1.41,1.41-2.81,2.82-4.22,4.23-1.29,1.29-2.08,1.82-2.76,1.77-.63-.03-1.33-.56-2.39-1.81l12.08-12.06ZM160.54,165.94l-5.66,5.26-18.89-19.73,4.69-4.63,19.86,19.09ZM140.73,117.81l-33.82,33.86-15.64-15.66,34-33.71,15.46,15.51ZM126.17,89.88c.01-.96.51-1.93,1.44-2.81.85-.81,1.72-1.22,2.58-1.22s1.69.4,2.5,1.21l.21.21c7.32,7.3,14.89,14.85,22.28,22.33.58.59,1.01,1.35,1.35,1.96.1.18.19.34.28.48-.06,2.14-.83,3.44-2.5,4.23-1.42.67-2.78.42-3.92-.73l-4.38-4.38c-6.16-6.17-12.52-12.54-18.75-18.84-.74-.74-1.1-1.56-1.09-2.42ZM184.88,191.43c.01,1.1-.4,2.1-1.2,2.92-.94.96-2.06,1.47-3.24,1.47h-.02c-1.32,0-2.61-.63-3.74-1.81-4.97-5.17-9.94-10.35-14.9-15.53-.25-.27-.49-.55-.73-.82l-.03-.03,5.81-5.59,2.25,2.16c1.97,1.88,3.98,3.81,6,5.74,2.65,2.55,5.3,5.1,7.95,7.67,1.17,1.13,1.82,2.49,1.84,3.82Z"/>
  <path class="st0" d="M26.41,40.76h65.78c1.93,0,3.5-1.57,3.5-3.5s-1.57-3.5-3.5-3.5H26.41c-1.93,0-3.5,1.57-3.5,3.5s1.57,3.5,3.5,3.5Z"/>
  <path class="st0" d="M26.41,77.51h65.78c1.93,0,3.5-1.57,3.5-3.5s-1.57-3.5-3.5-3.5H26.41c-1.93,0-3.5,1.57-3.5,3.5s1.57,3.5,3.5,3.5Z"/>
  <path class="st0" d="M77.55,110.76c0-1.93-1.57-3.5-3.5-3.5H26.41c-1.93,0-3.5,1.57-3.5,3.5s1.57,3.5,3.5,3.5h47.63c1.93,0,3.5-1.57,3.5-3.5Z"/>
  <path class="st0" d="M55.05,144.01h-28.63c-1.93,0-3.5,1.57-3.5,3.5s1.57,3.5,3.5,3.5h28.63c1.93,0,3.5-1.57,3.5-3.5s-1.57-3.5-3.5-3.5Z"/>
  <path class="st0" d="M55.05,180.76h-28.63c-1.93,0-3.5,1.57-3.5,3.5s1.57,3.5,3.5,3.5h28.63c1.93,0,3.5-1.57,3.5-3.5s-1.57-3.5-3.5-3.5Z"/>
</svg>