<?xml version="1.0" encoding="UTF-8"?>
<svg id="Layer_1" fill="currentColor" xmlns="http://www.w3.org/2000/svg" version="1.1" viewBox="0 0 230.74 243.25">
  <!-- Generator: Adobe Illustrator 29.4.0, SVG Export Plug-In . SVG Version: 2.1.0 Build 152)  -->

  <path
    d="M230.37,89.96c-.59-1.02-1.78-1.58-3.36-1.58h-.02c-4.58.01-9.9.12-14.98,1.16-3.88.79-7.28,1.77-10.53,3.03v-19.39c0-13.57,0-27.15,0-40.73,0-2.04,0-4.35-.42-6.55C198.02,9.94,186.05.03,169.81.02,129.38,0,88.96,0,48.53,0h-25.99C10.14,0,.31,9.48.16,21.57c-.05,3.79-.08,6.45-.11,8.4q-.07,5.45,0,9.42c.03,2.05.08,5.15.15,10.59.14,11.24,9.89,21.48,21.29,22.36,3.69.28,7.36.21,11.24.14,1.62-.03,3.26-.06,4.94-.07v80.58s-3.14,0-3.14,0c-.56,0-1.15.05-1.78.14-3.42.52-6.27,3.12-7.09,6.49-.87,3.53.51,7.29,3.34,9.14.99.65,2.06,1.06,3.19,1.5.29.11.59.23.89.35v7.84c-.23,0-.46,0-.69,0-7.49.17-13.15,5.91-13.17,13.35-.04,13.32-.04,25.69,0,37.8.03,7.75,5.9,13.61,13.66,13.63,6.86.01,13.84.02,21.06.02s14.23,0,21.77-.02c7.21-.01,12.62-4.78,13.55-11.61,17.58,0,35.16,0,52.75,0,14.32,0,28.64,0,42.96,0,10.82,0,16.53-5.7,16.53-16.47v-39.62c4.27-5.35,7.43-11.77,9.35-19.17,1.99-7.65,3.62-14.1,5.12-20.67,3.23-14.21,6.57-28.91,14.13-42.06.76-1.33.87-2.67.28-3.68ZM37.54,18.36c.11.9.12,1.82.12,2.68v44.51c-1.77-.07-3.53-.1-5.24-.13-4.21-.07-8.18-.14-12.11-.77-7.86-1.27-12.97-8.02-13.03-17.19-.04-6.13-.07-8.81-.08-10.35q-.02-2.05.01-5.48c.02-1.7.04-4.25.08-8.31.05-5.6,2.29-10.26,6.32-13.14,2.74-1.95,6.14-2.96,9.71-2.96,2.12,0,4.3.35,6.44,1.07,4.4,1.48,7.16,5.06,7.77,10.08ZM185.19,224.36c-31.93,0-63.86,0-95.79,0,0-10.76,0-21.52,0-32.28,0-7.63-5.77-13.49-13.41-13.63-.12,0-.24,0-.36-.01v-.9c0-2.44,0-4.75.03-7.09.01,0,.02-.01.03-.01,3.95-.58,7.08-3.86,7.44-7.81.23-2.54-.55-4.93-2.19-6.74-1.71-1.87-4.15-2.9-6.87-2.91-9.68-.02-19.36-.01-29.04,0v-16.92c0-36.52,0-73.04,0-109.57v-1.54c.04-6.01.07-12.21-4.44-17.62.09,0,.17,0,.25-.01.67-.04,1.17-.06,1.68-.06h24.91c34.04,0,68.07-.01,102.11,0,12.2,0,21.42,7.1,24.05,18.51.44,1.92.66,4.06.66,6.56.01,19.1.01,38.19.02,57.29v6.32c-19.14,10.37-31.92,27.67-37.94,51.5-3.54,14-4.29,28.1-2.23,41.92.14.93-.1,2.17-.66,3.41-2.07,4.59-4.25,9.22-6.36,13.7l-1.99,4.24c-.44.95-.98,2.34-.53,3.57.27.73.86,1.31,1.74,1.71.52.23,1.01.35,1.46.35.6,0,1.14-.2,1.62-.6.73-.6,1.2-1.57,1.59-2.44l1.34-2.98c1.82-4.04,3.7-8.22,5.67-12.27.38-.78,1.46-1.66,2.06-1.66,11.42-.16,22.6-5.1,29.24-9.67,1.33-.91,3.21-2.43,4.98-3.95v32.46c0,6.38-2.72,9.1-9.09,9.1ZM24.62,204.13c0-4.01-.02-8.02-.01-12.04,0-4.04,2.47-7.17,6.29-7.97.8-.17,1.64-.19,2.52-.19.2,0,.4,0,.6,0,.41,0,.82,0,1.23,0,2.38-.05,3.35-1.02,3.36-3.36v-9.84h31.62v9.37c0,3.16.95,3.73,3.8,3.86l.74.03c1.47.05,2.98.1,4.21.58,3.22,1.24,4.94,3.73,4.96,7.21.07,12.99.07,25.82,0,38.13-.02,4.64-3.38,7.88-8.17,7.88-4.18,0-8.32,0-12.48-.01-9.79-.02-19.91-.04-29.88.06-2.52.06-4.76-.82-6.37-2.43-1.63-1.63-2.51-3.91-2.48-6.43.09-8.28.07-16.69.06-24.83ZM74.27,158.46h0c1.46,0,2.44.58,3.09,1.83.6,1.14.54,2.22-.19,3.29-.69,1.02-1.7,1.49-3.18,1.49h-.02c-12.51-.03-25.02-.07-37.52-.09h-.02c-.35,0-.69.02-1.04.05-.34.02-.68.04-1.02.04-2.09-.04-3.49-1.41-3.48-3.39,0-1.86,1.49-3.21,3.51-3.21,4.76-.01,9.52,0,14.28,0h11.19c4.8,0,9.6,0,14.4,0ZM164.37,189.7c-.52.06-1.05.08-1.77.11-.17,0-.35.01-.54.02,1.32-2.64,2.62-5.27,3.93-7.9,14.45-29.14,28.12-56.69,52.04-78.28-.38,1.2-.76,2.39-1.14,3.59-1.23,3.85-2.5,7.83-3.52,11.81-1.35,5.24-2.62,10.59-3.85,15.77-1.52,6.38-3.08,12.99-4.8,19.43-5.04,18.86-21.26,33.11-40.36,35.45ZM161.85,175c-.67,1.3-1.33,2.61-2,3.91-.62-28.92,6.55-50.01,22.48-66.26,8.58-8.75,19.5-14.48,32.47-17.02.59-.12,1.21-.16,2.08-.23.08,0,.17-.01.25-.02-25.81,22.08-40.79,51.33-55.27,79.62Z" />
  <path
    d="M61.98,208.67c-.98-1.62-1.98-3.24-2.98-4.85-.93-1.51-1.86-3.01-2.78-4.53-.34-.56-.9-.9-1.51-.9h0c-.6,0-1.15.33-1.49.89-1.09,1.8-2.2,3.59-3.3,5.38l-1.77,2.87c-.29.46-.6.94-.85,1.47-.62,1.28-.9,2.65-.91,4.43h0c0,1.39.44,2.97,1.17,4.33,1.17,2.16,3.12,3.71,5.37,4.26.6.15,1.21.22,1.82.22,1.5,0,2.97-.45,4.27-1.33,2.88-1.95,4.26-4.98,3.99-8.75-.1-1.35-.44-2.52-1.03-3.49ZM49.78,213.16c-.04-1.1.22-2.11.77-3,1.15-1.85,2.29-3.71,3.44-5.57l.74-1.2,1.25,2.03c1.04,1.68,2.08,3.37,3.1,5.06.31.51.5,1.17.56,2,.16,1.93-.38,3.5-1.65,4.8-1.47,1.49-3.71,1.83-5.46.81-1.78-1.04-2.68-2.65-2.76-4.94Z" />
  <path
    d="M33.05,233.04h15.13s6.05,0,6.05,0h6.26s15.03,0,15.03,0c2.49,0,3.75-1.25,3.75-3.7,0-12.33,0-24.65,0-36.98,0-2.42-1.26-3.7-3.65-3.71-14.2-.02-28.39-.02-42.59,0-2.42,0-3.65,1.23-3.65,3.66,0,12.36,0,24.73,0,37.09,0,2.41,1.23,3.63,3.66,3.63ZM33.96,228.51v-35.29h40.77v35.29h-40.77Z" />
  <path
    d="M76.77,45.52h89.69c1.93,0,3.5-1.57,3.5-3.5s-1.57-3.5-3.5-3.5h-89.69c-1.93,0-3.5,1.57-3.5,3.5s1.57,3.5,3.5,3.5Z" />
  <path
    d="M76.77,74.52h89.69c1.93,0,3.5-1.57,3.5-3.5s-1.57-3.5-3.5-3.5h-89.69c-1.93,0-3.5,1.57-3.5,3.5s1.57,3.5,3.5,3.5Z" />
  <path
    d="M169.96,100.02c0-1.93-1.57-3.5-3.5-3.5h-89.69c-1.93,0-3.5,1.57-3.5,3.5s1.57,3.5,3.5,3.5h89.69c1.93,0,3.5-1.57,3.5-3.5Z" />
</svg>