<?xml version="1.0" encoding="UTF-8"?>
<svg id="Layer_1" xmlns="http://www.w3.org/2000/svg" version="1.1" viewBox="0 0 246.82 263.73">
  <!-- Generator: Adobe Illustrator 29.4.0, SVG Export Plug-In . SVG Version: 2.1.0 Build 152)  -->

  <path
    d="M126.04,0c1.97.5,3.98.87,5.9,1.51,11.08,3.73,18.43,11.21,22.08,22.32.16.48.29.98.45,1.46.04.13.15.24.27.43,7.68-.72,14.74,1.07,20.97,5.76,5.26,3.95,8.85,9.11,10.48,15.5.43,1.68,1.22,2.27,2.82,2.63,14.08,3.22,23.75,15.29,23.39,29.69-.29,11.61-5.81,20.34-15.99,25.93-1.56.86-2.14,1.75-2.29,3.46-1.19,13.88-12.11,23.61-25.98,23.07-5.83-.23-10.91-2.54-15.13-6.59-.88-.84-1.48-.86-2.63-.46-2.85.99-5.81,1.64-9.17,2.55.99,12.07,2.02,24.7,3.07,37.52,1.07,0,1.93,0,2.8,0,31.6,0,63.19,0,94.79,0,3.05,0,4.78,1.34,4.94,3.78.15,2.37-1.43,4.24-3.84,4.49-.72.07-1.46.03-2.19.03-31.01,0-62.02,0-93.03,0-.86,0-1.73,0-2.82,0,.39,3.92.36,7.7,1.19,11.28,2.03,8.73,7.75,14.19,16.54,15.37,11.29,1.51,20.37,6.35,27.17,15.47.13.17.32.3.56.52,4.04-3.84,8.78-5.95,14.43-5.64,1.09.06,2.19.21,3.24.46,2.38.58,3.64,2.64,3.15,4.99-.46,2.21-2.63,3.62-5,3.11-4-.87-7.28.3-10.24,3.34,4.35,4.07,9.27,6.64,14.85,7.81,2.7.57,5.49.72,8.25.89,2.78.16,4.66,1.74,4.63,4.18-.03,2.4-1.96,4.15-4.72,4.13-13.76-.13-25.07-5.32-33.74-16.19-2.46-3.08-5.05-6.13-8.02-8.68-2.37-2.04-5.39-3.3-8.55-5.15-.22,2.17-.44,3.6-.5,5.05-.09,2.07.79,3.5,2.64,4.65,6.2,3.86,9.8,9.35,9.6,16.86-.11,4.03-1.78,7.52-4.63,10.37-1.7,1.7-4.04,1.74-5.73.24-1.7-1.51-1.88-3.8-.44-5.72,3.83-5.12,3.21-10.85-2.27-14.03-6.83-3.97-8.31-9.68-7.1-16.8.05-.29.08-.58.09-.87,0-.21-.03-.42-.05-.76-1.31-.38-2.66-.67-3.93-1.17-11.04-4.32-17.72-12.25-18.88-24.16-1.4-14.27-2.36-28.58-3.52-42.88-.56-6.85-1.2-13.7-1.71-20.56-.72-9.6,3.3-17.01,10.75-22.75,6.55-5.05,14.03-8.02,22.04-9.76,2.98-.65,5.29.77,5.72,3.29.41,2.39-1.24,4.29-4.17,4.92-7.53,1.63-14.51,4.45-20.34,9.67-3.96,3.55-6.07,7.92-5.68,13.45,3.1.65,5.73-.09,8.16-1.82,4-2.86,5.22-2.67,8.32,1.19,4.43,5.53,11.6,7.57,18.13,5.15,6.71-2.48,11.09-9.09,10.76-16.24-.02-.51-.09-1.02-.12-1.53-.22-3.32.5-4.39,3.7-5.51,9.27-3.27,15.18-11.98,14.67-21.66-.5-9.51-7.29-17.54-16.79-19.79-1.34-.32-2.74-.43-4.12-.58-2.62-.29-3.84-1.3-4.16-3.92-.8-6.52-3.6-11.87-9.06-15.61-5.07-3.47-10.64-4.63-16.68-3.1-3.83.97-5.69-.25-6.29-4.08-1.93-12.37-11.74-21.69-23.35-22.16-12.91-.52-23.42,7.22-26.43,19.47-.23.92-.37,1.86-.53,2.8-.66,3.72-2.47,4.85-6.19,4.01-8.8-2-15.98.73-21.58,7.68-2.34,2.9-3.63,6.29-4.05,10.03-.4,3.55-1.42,4.51-4.93,4.93-10.31,1.23-17.29,7.04-19.67,16.35-2.67,10.47,3,21.41,13.1,25.28,4.52,1.73,4.68,1.97,4.5,6.9-.37,10.26,7.15,18.11,17.12,17.69,5.04-.21,9.05-2.58,12.1-6.59,2.29-3.01,3.73-3.31,7.05-1.43,2.89,1.63,5.88,2.9,9.28,2.96,1.66.03,2.29-.5,2.18-2.29-.37-6.17-3.84-10.45-8.41-14.02-4.61-3.61-9.84-5.96-15.53-7.31-1.84-.44-3.21-1.44-3.52-3.44-.27-1.75.23-3.35,1.81-4.13,1.03-.51,2.47-.8,3.55-.52,10.01,2.54,18.86,7.09,25.34,15.42,3.89,5,5.41,10.73,4.94,17.06-.99,13.58-1.87,27.16-2.81,40.74-.55,7.96-1.04,15.92-1.75,23.87-.95,10.68-9.73,20.61-20.56,23.55-.7.19-1.41.37-2.24.59.15,1.83.39,3.62.44,5.42.14,5.47-1.82,9.74-6.81,12.54-4.4,2.47-6.46,7.4-4.98,11.28.41,1.06,1.12,2.04,1.82,2.96,1.65,2.16,1.6,4.45-.24,6.05-1.82,1.58-4.17,1.34-6.04-.61-5.81-6.09-5.8-15.62.17-22.56,1.32-1.53,2.85-3.08,4.61-3.99,2.88-1.49,3.42-3.77,3.13-6.58-.09-.93-.34-1.84-.53-2.82-4.68,1.2-8.37,3.73-11.45,7.17-2.39,2.67-4.61,5.49-6.97,8.19-8.45,9.62-19.27,13.87-31.88,14-2.73.03-4.67-1.78-4.67-4.18,0-2.44,1.87-4.11,4.68-4.1,8.68.03,16.31-2.7,22.82-8.45-1.05-2.68-5.88-4.47-9.41-3.8-3.07.59-5.11-.53-5.6-2.98-.53-2.65.89-4.52,4.05-5.11,6.46-1.2,11.94.85,16.78,5.37,1.12-1.26,2.24-2.47,3.3-3.73,6.12-7.28,14.16-10.84,23.39-12.04,10.19-1.33,17.11-8.44,18.06-18.67.24-2.62.34-5.26.53-8.22h-2.62c-31.3,0-62.61,0-93.91,0-3.45,0-5.35-1.66-5.19-4.48.11-1.99,1.61-3.6,3.58-3.8.72-.07,1.46-.03,2.19-.03,31.23,0,62.46,0,93.69,0,.87,0,1.74,0,2.86,0,.9-12.7,1.79-25.28,2.64-37.29-4.22-1.17-8.11-2.28-12.03-3.27-.51-.13-1.33.26-1.77.67-14.02,12.95-35.9,6.73-40.81-11.63-.26-.99-.68-2.03-.58-3,.31-2.97-1.13-4.37-3.64-5.78-10.71-6.02-16.22-18.01-14.4-30.58,1.68-11.62,11.02-21.64,22.78-24.22,1.9-.42,2.65-1.2,3.17-3.06,3.68-13.37,16.81-22.22,30.72-20.88.21.02.42-.02.78-.05.17-.52.34-1.07.52-1.6,4.41-13.14,13.31-21.16,27-23.7.35-.06.67-.26,1-.4,2.78,0,5.56,0,8.34,0Z" />
  <path
    d="M34.99,193.83c-2.29-2.45-4.9-3.59-7.73-4.39-2.78-.78-4.02-3.09-3.06-5.51.75-1.89,2.55-3.01,4.54-2.58,6.74,1.47,12.21,4.84,15.4,11.17.73,1.44,1.54,1.75,2.99,1.71,6.52-.18,11.97-2.54,16.66-7.15,6.97-6.86,15.44-9.08,25-7.3,2.15.4,3.93,1.31,4.29,3.73.49,3.23-2.22,5.22-5.94,4.46-6.71-1.36-12.57.28-17.55,5.01-.8.75-1.6,1.5-2.42,2.23-5.7,5.02-12.46,7.18-19.92,7.29-4.38.07-8.77-.05-13.16-.14-3.77-.08-5.81,1.39-6.37,5.14-.32,2.14-.14,4.35-.14,6.53,0,.8.2,1.6.19,2.4-.04,2.04-1.38,3.62-3.42,3.95-1.96.31-3.47-.54-4.35-2.26-3.05-5.95-.27-17.62,5.07-21.47,2.44-1.76,4.33-2.31,9.92-2.81Z" />
  <path
    d="M211.8,193.85c.9.06,1.44.11,1.99.14,7.16.37,12.53,4.91,13.5,12.03.47,3.42.24,6.98-.02,10.45-.19,2.6-2.42,4.27-4.63,3.96-2.47-.34-3.71-2.25-3.58-5.13.12-2.68.31-5.41-.02-8.05-.44-3.44-2.65-4.93-6.12-4.93-5.62.01-11.25.09-16.86-.18-6.93-.33-12.85-3.31-17.71-8.15-5.47-5.45-11.77-7.57-19.35-5.95-2.64.56-4.75-.77-5.25-3.05-.5-2.3.83-4.41,3.46-5,9.85-2.23,18.6.02,25.82,7.11,4.82,4.73,10.44,7.03,17.11,7.13,1.14.02,1.77-.23,2.33-1.37,3.1-6.37,8.46-9.87,15.2-11.43,2.5-.58,4.61.76,5.17,3.13.49,2.08-.79,4.17-3.11,4.81-2.91.8-5.58,1.93-7.94,4.46Z" />
  <path
    d="M95,245.23c-.65-3.85-1.45-7.6-1.9-11.41-.66-5.51,1.3-10.04,5.68-13.49.75-.59,1.45-1.24,2.24-1.76,3.58-2.36,5.17-5.54,4.49-9.9-.39-2.47,1.24-4.44,3.49-4.74,2.4-.31,4.39,1.24,4.73,3.8.91,6.84-.75,12.89-6.79,16.64-5.62,3.49-6.54,8-4.87,13.88,1.21,4.27,2.24,8.62,2.95,13,.8,4.92-1.81,8.58-5.35,11.59-1.67,1.42-4.09,1.05-5.53-.55-1.35-1.52-1.4-3.8-.07-5.42.69-.83,1.46-1.59,2.4-2.61" />
  <path
    d="M150.35,254.28c.85.91,1.49,1.58,2.12,2.27,1.66,1.83,1.67,4.27.04,5.91-1.63,1.63-4.05,1.64-5.9-.04-4.11-3.74-5.85-8.25-4.51-13.81,1.18-4.89,2.32-9.79,3.32-14.72.66-3.26-.56-5.86-3.34-7.74-1.21-.82-2.36-1.73-3.48-2.67-4.64-3.9-6.56-10.61-4.69-16.3.83-2.53,2.92-3.8,5.2-3.17,2.15.6,3.33,2.7,2.79,5.2-.83,3.83.07,6.82,3.49,9.1,3.82,2.55,7.24,5.61,8.12,10.45.87,4.79-.16,9.45-1.35,14.07-.19.76-.35,1.52-.47,2.04" />
  <path
    d="M132.21,229.72c-.06,3.86-1.36,6.6-3.35,9.18-1.59,2.06-3.04,4.28-4.25,6.59-1.03,1.96-.8,3.94,1.06,5.54.71.61,1.3,1.4,1.79,2.2,1.17,1.91.7,4.16-1.05,5.46-1.64,1.22-3.88,1.06-5.41-.39-6.14-5.85-7-11.73-2.66-19.09,1.07-1.82,2.37-3.51,3.71-5.15,2.46-3.02,2.45-5.24-.24-8.1-.25-.27-.54-.5-.77-.78-1.44-1.75-1.38-3.97.14-5.57,1.46-1.54,3.84-1.76,5.55-.33,3.43,2.85,5.3,6.52,5.49,10.45Z" />
  <path
    d="M119.24,80.2c0-3.14-.04-6.28,0-9.42.04-3.08,1.59-4.84,4.14-4.85,2.55-.01,4.17,1.75,4.19,4.8.05,6.42.05,12.85,0,19.27-.02,2.93-1.82,4.88-4.25,4.82-2.37-.06-4.02-1.94-4.07-4.77-.06-3.28-.01-6.57-.01-9.86Z" />
</svg>