<?xml version="1.0" encoding="UTF-8"?>
<svg id="Layer_1" xmlns="http://www.w3.org/2000/svg" version="1.1" viewBox="0 0 254.64 230.77">
  <!-- Generator: Adobe Illustrator 29.4.0, SVG Export Plug-In . SVG Version: 2.1.0 Build 152)  -->
  <defs>
    <style>
      .st0 {
        fill: #f2ac1d;
      }
    </style>
  </defs>
  <path class="st0" d="M136.68,113.35c5.15,0,10.07-.02,15,0,4.7.03,8.76,3.46,9.47,7.95.75,4.8-2,9.33-6.64,10.71-1.19.35-2.48.48-3.73.5-4.31.06-8.62.02-12.93.03-.33,0-.66.05-1.17.1,0,.75,0,1.43,0,2.1,0,13.16.01,26.31,0,39.47,0,4.89-3.16,8.9-7.59,9.77-6.19,1.21-11.59-3.25-11.6-9.68-.03-13.16,0-26.31,0-39.47,0-.68,0-1.36,0-2.29-.73,0-1.34,0-1.94,0-4.31,0-8.62.06-12.93-.02-5.06-.09-9.21-3.76-9.63-8.36-.48-5.29,2.58-9.55,7.69-10.63.72-.15,1.48-.17,2.22-.17,4.77-.01,9.53,0,14.59,0,0-1.47-.02-2.87,0-4.28.05-2.52-.15-5.09.26-7.55.86-5.14,5.27-8.28,10.49-7.81,4.63.42,8.37,4.62,8.45,9.57.05,3.27,0,6.54,0,10.07ZM132.27,152.72c0-7.24,0-14.47,0-21.71,0-2.18.69-2.85,2.89-2.85,5.4,0,10.8.03,16.2-.01,3.3-.02,5.54-2.26,5.48-5.34-.06-3.01-2.26-5.03-5.55-5.04-5.4-.02-10.8,0-16.2-.01-2.03,0-2.82-.81-2.82-2.81-.02-3.79,0-7.58,0-11.37-.02-3.25-2.1-5.46-5.12-5.49-3.12-.03-5.24,2.19-5.26,5.52-.01,3.62,0,7.24,0,10.85,0,2.65-.67,3.3-3.38,3.31-5.17,0-10.34,0-15.51.01-.74,0-1.51.04-2.2.26-2.5.81-3.83,3.14-3.42,5.83.38,2.47,2.5,4.26,5.26,4.28,5.34.05,10.68.01,16.02.02,2.64,0,3.22.57,3.22,3.22,0,14.24,0,28.49,0,42.73,0,3.33,2.12,5.68,5.12,5.74,3.03.06,5.26-2.37,5.26-5.77,0-7.12,0-14.24,0-21.36Z"/>
  <path class="st0" d="M47.91,15.77h47.65c0-3.77,0-7.43,0-11.09,0-2.92,1.54-4.69,4.01-4.66,2.44.03,3.98,1.82,4,4.74.02,3.6,0,7.19,0,10.96h47.6c0-3.49-.02-7.01.01-10.52,0-.84.04-1.71.3-2.49.61-1.88,2.42-2.94,4.31-2.66,1.87.27,3.33,1.81,3.38,3.77.07,3.18.02,6.36.02,9.54,0,.76,0,1.52,0,2.41h47.64c0-3.48-.01-6.85,0-10.22,0-.84.02-1.71.23-2.52.51-2.01,2.3-3.22,4.28-3,1.87.21,3.4,1.68,3.47,3.67.11,3.39.13,6.79.04,10.18-.05,1.59.46,2.05,2.04,2.05,6.71-.01,13.45-.19,20.14.24,9.63.61,17.59,9.36,17.6,19.04.03,58.75.03,117.51,0,176.26,0,10.13-8.73,18.95-18.85,19.28-.85.03-1.7.02-2.55.02-70.84,0-141.69,0-212.53,0-10.51,0-18.44-6.51-20.37-16.73-.23-1.24-.22-2.53-.22-3.8C.1,152.47.2,94.71,0,36.94-.04,26.59,7.52,15.74,20.86,15.89c5.66.06,11.31-.04,16.97.04,1.55.02,2.13-.4,2.06-2.02-.12-3.04-.05-6.08-.03-9.12.03-2.98,1.5-4.74,3.93-4.77,2.49-.03,4.08,1.83,4.11,4.87.03,3.58,0,7.17,0,10.87ZM8.11,55.91c0,.81,0,1.49,0,2.18,0,50.77,0,101.53,0,152.3,0,7.3,5.09,12.35,12.43,12.35,71.2,0,142.4,0,213.6,0,7.43,0,12.47-5.06,12.47-12.53,0-50.7,0-101.39,0-152.09,0-.74-.06-1.48-.09-2.21H8.11ZM8.15,47.54h238.47c0-4.05.03-7.93,0-11.8-.06-6.31-4.75-11.43-11.09-11.66-6.57-.24-13.15-.07-19.72-.06-.25,0-.51.16-.78.25v7.57c2.53,0,4.93-.02,7.32,0,2.7.03,4.49,1.65,4.48,4.02-.01,2.36-1.8,3.98-4.52,3.99-7.64.02-15.27.02-22.91,0-2.66,0-4.52-1.74-4.48-4.06.04-2.33,1.88-3.93,4.59-3.95,2.38-.02,4.76,0,7.14,0v-7.76h-47.33v7.56c.26.08.39.16.51.16,2.19.02,4.38.02,6.57.04,2.96.02,4.68,1.48,4.7,3.98.02,2.5-1.71,4.03-4.63,4.04-7.5.01-14.99.01-22.49,0-2.92,0-4.7-1.55-4.7-4.01,0-2.46,1.78-3.99,4.7-4,2.37-.01,4.74,0,7.05,0v-7.69h-47.35v7.45c.23.1.36.2.48.2,2.19.02,4.38.03,6.57.05,2.92.02,4.72,1.54,4.73,3.98.01,2.46-1.78,4.02-4.69,4.03-7.5.01-14.99.01-22.49,0-2.94,0-4.66-1.52-4.65-4.02,0-2.5,1.72-3.97,4.68-3.99,2.37-.01,4.75,0,7.12,0v-7.73h-47.36v7.55c.3.08.43.14.57.14,2.19.01,4.38,0,6.57.03,2.7.03,4.55,1.63,4.6,3.94.04,2.37-1.87,4.06-4.69,4.07-7.5.01-14.99.01-22.49,0-2.89,0-4.71-1.56-4.73-3.99-.01-2.43,1.81-4,4.69-4.02,2.37-.01,4.74,0,7.09,0v-7.64c-7.5,0-14.86-.33-22.17.12-4.85.3-9.05,5.24-9.33,10.16-.25,4.29-.05,8.6-.05,13.07Z"/>
  <path class="st0" d="M237.6,64.56H16.54c.07,42.64.02,85.27.04,127.91,0,1.62.03,3.27.37,4.85,2.11,9.84,10.02,15.95,20.66,15.96,59.66.02,119.32.02,178.97-.03,2.2,0,4.46-.26,6.58-.81,7.27-1.88,14.54-9.01,14.51-20.2-.11-42.56-.08-85.12-.07-127.68ZM232.19,192.95c-.09,8.55-5.97,14.79-14.56,14.94-12.62.22-25.24.06-37.87.06-.03-.1-.06-.2-.09-.3.84-.29,1.67-.6,2.51-.87,11.36-3.64,22.33-8.07,32.02-15.12,7.21-5.25,13.01-11.69,17.01-19.63.16-.31.35-.6.54-.89.03-.04.13-.04.44-.12,0,.71,0,1.37,0,2.03,0,6.64.06,13.28-.02,19.92ZM174.57,203.25c17.84-11.85,30.07-28.02,37.94-47.74,6.21,1.05,12.38,1.35,18.3-1.44l.58.32c-1.2,3.85-2.15,7.8-3.65,11.54-4.93,12.28-14.24,20.61-25.75,26.84-8.64,4.68-17.87,7.89-27.42,10.47ZM222.72,150.76c-3.49.07-7-.38-10.47-.86-2.82-.39-3.53-.13-4.51,2.46-6.55,17.35-16.89,32.03-31.98,43.24-7.14,5.31-14.92,9.54-23.67,11.73-1.92.48-3.98.6-5.98.6-36.07.03-72.15.03-108.22.02-9.66,0-15.92-6.03-15.92-15.38-.02-40.07,0-80.15,0-120.22v-2.07h210.14c.04.8.1,1.48.1,2.17.01,23.18.03,46.36.03,69.54,0,5.21-3.52,8.63-9.51,8.75Z"/>
</svg>